<svg xmlns="http://www.w3.org/2000/svg" viewBox="0 0 180 180"><g fill="none" stroke="gray" stroke-width="2"><path d="M86.05 95.01a.8.79 54.4 0 1-1.55-.26v-6.19a.76.76 0 0 1 1.51-.1q.25 1.92 2.36 1.19.52-.18.61-.72c.56-3.3-4.41-4.07-6.26-2.47-1.97 1.7-1.21 6.47-1.23 9.01a1.22 1.2-69.6 0 0 .41.91q3.24 2.79 6.68.27a.86.84 74.2 0 0 .34-.62l.27-4.18a.58.58 0 0 0-.6-.62l-2.86.08a.55.55 0 0 0-.38.93q1.21 1.24.7 2.77M103.46 93.22c5.2-5.37-1.6-8.2-6.09-7.49a.75.74-4.9 0 0-.63.74l.15 10.72q0 .63.63.57l1.29-.13q.62-.07.5-.68l-.39-2.1a.73.73 0 0 1 .88-.85l1.4.32a.79.79 0 0 1 .6.68q.3 2.47 2.48 2.81a.81.8 76.9 0 0 .78-1.26l-1.67-2.39q-.36-.5.07-.94M167.71 88.23l.34-2.02a.61.61 0 0 0-.6-.71h-1.35q-.4 0-.4.4v11.45q0 .4.4.4h1.38a.61.61 0 0 0 .6-.71c-.43-2.38-1.29-7.53 2.33-7.18a2.01 2 .9 0 1 1.8 1.85q.18 2.53-.12 4.75-.09.7.17 1.02.42.53 1.26.21A.74.74 0 0 0 174 97v-6.76q0-.58-.4-1.01-2.22-2.35-5.27-.57-.77.45-.62-.43M10.39 89.27a.78.78 0 0 1 1.23-.97l.85 1.04q.27.32.67.41 1.02.23 1.71-.45.39-.38.21-.9c-1.64-4.63-9.64-3.1-7.45 2.6q.18.46.59.72l3.64 2.3a.8.8 0 0 1-.43 1.48h-.4q-.57 0-.8-.52-.77-1.73-2.68-1.18-.43.12-.48.57c-.57 5.78 11.26 3.85 7.59-1.96-.92-1.46-3.12-1.65-4.25-3.14M48.78 95.17q-.76-1.75-2.72-1.4-.37.07-.46.43c-1.3 5.16 9.48 4.95 7.85-.92-.5-1.81-2.73-2.69-4.32-3.47q-.97-.48-.4-1.49a.67.67 0 0 1 1.17 0q1.04 1.83 3.04 1.32.58-.15.52-.75c-.53-5.25-9.57-3.45-7.77 1.38.87 2.35 3.93 2.52 4.52 3.92q.24.55-.1 1.08a.76.76 0 0 1-1.33-.1M35.67 91.76l-.86-4.9q-.1-.61-.72-.61h-3.55q-.47 0-.49.47l-.43 10.21q-.02.57.55.57h1.87a.54.53 90 0 0 .53-.54l-.03-7.42a.34.34 0 0 1 .68-.05l1.04 6.78a1.77 1.77 0 0 0 3.51-.04l.87-6.49a.46.46 0 0 1 .91.07l-.19 7.11a.57.57 0 0 0 .57.58h1.78q.46 0 .45-.46L41.94 87q-.02-.68-.7-.71l-3.59-.14a.59.58-84.5 0 0-.6.5l-.76 5.1a.31.31 0 0 1-.62.01M61.78 94.62a.91.9 81.9 0 1-.65.87q-1 .28-1-.74-.03-4-.2-8.08-.02-.52-.54-.5l-2.17.11q-.46.02-.46.48c-.03 2.62-.79 8.34 1.26 10.1 1.98 1.71 7.17 1.3 6.85-2.5q-.32-3.71.15-7.5a.54.54 0 0 0-.54-.61h-2.24q-.51 0-.5.51l.04 7.86M21.71 89.7a.4.4 0 0 1 .8-.02l.92 7.47a.4.4 0 0 0 .39.35h2.41a.4.4 0 0 0 .4-.47l-1.88-10.45a.4.4 0 0 0-.39-.33h-4.29a.4.4 0 0 0-.4.33l-1.82 10.45a.4.4 0 0 0 .4.47h2.46a.4.4 0 0 0 .4-.37l.6-7.43M75.57 91.8a.4.4 0 0 1-.78.17l-2.1-5.46a.4.4 0 0 0-.37-.26h-2.97a.4.4 0 0 0-.4.4V97.1a.4.4 0 0 0 .4.4h2.08a.4.4 0 0 0 .4-.43l-.37-5.7a.4.4 0 0 1 .77-.18l2.4 6.06a.4.4 0 0 0 .37.25h3.1a.4.4 0 0 0 .4-.4V86.65a.4.4 0 0 0-.4-.4h-2.43a.4.4 0 0 0-.4.42l.3 5.13M144.95 88.09q-1.45 1.15-2.86-.08a1.08 1.06 60.5 0 0-.87-.25c-7.65 1.22-5.42 12.21 1.81 9.53q.43-.15.86-.01l1.45.51q.91.31.91-.65v-8.43a.8.8 0 0 0-1.3-.62" vector-effect="non-scaling-stroke"/><path d="M109.04 95.21a.85.84 59 0 1 .39-1.58l5.8-.17q.46-.02.42-.47c-.26-3.44-2.89-5.97-6.29-4.84-5.47 1.81-4.14 10.11 1.97 9.75q2.26-.13 3.39-1.96a.96.96 0 0 0-1.46-1.21q-1.95 1.77-4.22.48M121.52 94.04a1.01 1.01 0 0 1-.21 1.96q-1.61.15-2.79-1.09-.39-.41-.89-.14l-.76.4a.73.72 53.8 0 0-.17 1.15c6 5.98 11.91-5.13 2.97-4.69a.85.84 37.5 0 1-.22-1.67q1.8-.39 3.26.62a.9.9 0 0 0 1.18-1.34c-2.15-2.43-8.79-1.35-6.67 3.03q.25.5.79.67l3.51 1.1M134.57 95.01c-2.15-1.08-4.48 2.73-6.43-.47q-.53-.88.49-.91l6.07-.15q.49-.02.49-.51c.03-7.48-10.4-6.03-9.55.4.61 4.69 5.29 5.69 8.84 2.81q.39-.33.24-.79a.43.03 72.2 0 0-.15-.38M154.15 88.31q-1.54-.61-2.85.31-.31.22-.66.06l-1.58-.73a.57.57 0 0 0-.81.52V97q0 .75.75.75h.78a.72.71 0 0 0 .72-.71c0-1.79-1.06-7.97 2.65-6.68a.62.62 0 0 0 .8-.42l.36-1.3a.27.27 0 0 0-.16-.33M161.79 90.83q.53.94 1.52.64a1.01 1 61.1 0 0 .46-1.61c-2.59-3.04-6.98-2.48-8.48 1.28-2.73 6.86 8.06 8.59 8.71 4.17q.07-.47-.14-.75a1.1 1.1 0 0 0-1.81.09c-3.08 4.94-8.72-5.31-1.52-4.63a1.63 1.63 0 0 1 1.26.81M99.13 88.51l.14 2.82a.71.71 0 0 0 .74.68l.12-.01a2.97 2.01-2.8 0 0 2.87-2.15l-.01-.22a2.97 2.01-2.8 0 0-3.06-1.87l-.12.01a.71.71 0 0 0-.68.74M144.26 92.84a2.86 2.86 0 0 0-2.86-2.86 2.86 2.86 0 0 0-2.86 2.86 2.86 2.86 0 0 0 2.86 2.86 2.86 2.86 0 0 0 2.86-2.86" vector-effect="non-scaling-stroke"/><path d="m108.54 91.72 4.44.04a.2.2 0 0 0 .21-.2v-.12a2.01 1.44.4 0 0-2-1.46h-.82a2.01 1.44.4 0 0-2.02 1.42v.12a.2.2 0 0 0 .19.2M128.23 91.75h4.46a.2.2 0 0 0 .2-.2v-.12a2.02 1.44-.1 0 0-2.02-1.44h-.82a2.02 1.44-.1 0 0-2.02 1.44v.12a.2.2 0 0 0 .2.2" vector-effect="non-scaling-stroke"/></g><path fill="#fff" d="M0 0h180v180H0V0Zm86.05 95.01a.8.79 54.4 0 1-1.55-.26v-6.19a.76.76 0 0 1 1.51-.1q.25 1.92 2.36 1.19.52-.18.61-.72c.56-3.3-4.41-4.07-6.26-2.47-1.97 1.7-1.21 6.47-1.23 9.01a1.22 1.2-69.6 0 0 .41.91q3.24 2.79 6.68.27a.86.84 74.2 0 0 .34-.62l.27-4.18a.58.58 0 0 0-.6-.62l-2.86.08a.55.55 0 0 0-.38.93q1.21 1.24.7 2.77Zm17.41-1.79c5.2-5.37-1.6-8.2-6.09-7.49a.75.74-4.9 0 0-.63.74l.15 10.72q0 .63.63.57l1.29-.13q.62-.07.5-.68l-.39-2.1a.73.73 0 0 1 .88-.85l1.4.32a.79.79 0 0 1 .6.68q.3 2.47 2.48 2.81a.81.8 76.9 0 0 .78-1.26l-1.67-2.39q-.36-.5.07-.94Zm64.25-4.99.34-2.02a.61.61 0 0 0-.6-.71h-1.35q-.4 0-.4.4v11.45q0 .4.4.4h1.38a.61.61 0 0 0 .6-.71c-.43-2.38-1.29-7.53 2.33-7.18a2.01 2 .9 0 1 1.8 1.85q.18 2.53-.12 4.75-.09.7.17 1.02.42.53 1.26.21A.74.74 0 0 0 174 97v-6.76q0-.58-.4-1.01-2.22-2.35-5.27-.57-.77.45-.62-.43ZM10.39 89.27a.78.78 0 0 1 1.23-.97l.85 1.04q.27.32.67.41 1.02.23 1.71-.45.39-.38.21-.9c-1.64-4.63-9.64-3.1-7.45 2.6q.18.46.59.72l3.64 2.3a.8.8 0 0 1-.43 1.48h-.4q-.57 0-.8-.52-.77-1.73-2.68-1.18-.43.12-.48.57c-.57 5.78 11.26 3.85 7.59-1.96-.92-1.46-3.12-1.65-4.25-3.14Zm38.39 5.9q-.76-1.75-2.72-1.4-.37.07-.46.43c-1.3 5.16 9.48 4.95 7.85-.92-.5-1.81-2.73-2.69-4.32-3.47q-.97-.48-.4-1.49a.67.67 0 0 1 1.17 0q1.04 1.83 3.04 1.32.58-.15.52-.75c-.53-5.25-9.57-3.45-7.77 1.38.87 2.35 3.93 2.52 4.52 3.92q.24.55-.1 1.08a.76.76 0 0 1-1.33-.1Zm-13.11-3.41-.86-4.9q-.1-.61-.72-.61h-3.55q-.47 0-.49.47l-.43 10.21q-.02.57.55.57h1.87a.54.53 90 0 0 .53-.54l-.03-7.42a.34.34 0 0 1 .68-.05l1.04 6.78a1.77 1.77 0 0 0 3.51-.04l.87-6.49a.46.46 0 0 1 .91.07l-.19 7.11a.57.57 0 0 0 .57.58h1.78q.46 0 .45-.46L41.94 87q-.02-.68-.7-.71l-3.59-.14a.59.58-84.5 0 0-.6.5l-.76 5.1a.31.31 0 0 1-.62.01Zm26.11 2.86a.91.9 81.9 0 1-.65.87q-1 .28-1-.74-.03-4-.2-8.08-.02-.52-.54-.5l-2.17.11q-.46.02-.46.48c-.03 2.62-.79 8.34 1.26 10.1 1.98 1.71 7.17 1.3 6.85-2.5q-.32-3.71.15-7.5a.54.54 0 0 0-.54-.61h-2.24q-.51 0-.5.51l.04 7.86ZM21.71 89.7a.4.4 0 0 1 .8-.02l.92 7.47a.4.4 0 0 0 .39.35h2.41a.4.4 0 0 0 .4-.47l-1.88-10.45a.4.4 0 0 0-.39-.33h-4.29a.4.4 0 0 0-.4.33l-1.82 10.45a.4.4 0 0 0 .4.47h2.46a.4.4 0 0 0 .4-.37l.6-7.43Zm53.86 2.1a.4.4 0 0 1-.78.17l-2.1-5.46a.4.4 0 0 0-.37-.26h-2.97a.4.4 0 0 0-.4.4V97.1a.4.4 0 0 0 .4.4h2.08a.4.4 0 0 0 .4-.43l-.37-5.7a.4.4 0 0 1 .77-.18l2.4 6.06a.4.4 0 0 0 .37.25h3.1a.4.4 0 0 0 .4-.4V86.65a.4.4 0 0 0-.4-.4h-2.43a.4.4 0 0 0-.4.42l.3 5.13Zm69.38-3.71q-1.45 1.15-2.86-.08a1.08 1.06 60.5 0 0-.87-.25c-7.65 1.22-5.42 12.21 1.81 9.53q.43-.15.86-.01l1.45.51q.91.31.91-.65v-8.43a.8.8 0 0 0-1.3-.62Zm-35.91 7.12a.85.84 59 0 1 .39-1.58l5.8-.17q.46-.02.42-.47c-.26-3.44-2.89-5.97-6.29-4.84-5.47 1.81-4.14 10.11 1.97 9.75q2.26-.13 3.39-1.96a.96.96 0 0 0-1.46-1.21q-1.95 1.77-4.22.48Zm12.48-1.17a1.01 1.01 0 0 1-.21 1.96q-1.61.15-2.79-1.09-.39-.41-.89-.14l-.76.4a.73.72 53.8 0 0-.17 1.15c6 5.98 11.91-5.13 2.97-4.69a.85.84 37.5 0 1-.22-1.67q1.8-.39 3.26.62a.9.9 0 0 0 1.18-1.34c-2.15-2.43-8.79-1.35-6.67 3.03q.25.5.79.67l3.51 1.1Zm13.05.97c-2.15-1.08-4.48 2.73-6.43-.47q-.53-.88.49-.91l6.07-.15q.49-.02.49-.51c.03-7.48-10.4-6.03-9.55.4.61 4.69 5.29 5.69 8.84 2.81q.39-.33.24-.79a.43.03 72.2 0 0-.15-.38Zm19.58-6.7q-1.54-.61-2.85.31-.31.22-.66.06l-1.58-.73a.57.57 0 0 0-.81.52V97q0 .75.75.75h.78a.72.71 0 0 0 .72-.71c0-1.79-1.06-7.97 2.65-6.68a.62.62 0 0 0 .8-.42l.36-1.3a.27.27 0 0 0-.16-.33Zm7.64 2.52q.53.94 1.52.64a1.01 1 61.1 0 0 .46-1.61c-2.59-3.04-6.98-2.48-8.48 1.28-2.73 6.86 8.06 8.59 8.71 4.17q.07-.47-.14-.75a1.1 1.1 0 0 0-1.81.09c-3.08 4.94-8.72-5.31-1.52-4.63a1.63 1.63 0 0 1 1.26.81Z"/><path d="M86.05 95.01q.51-1.53-.7-2.77a.55.55 0 0 1 .38-.93l2.86-.08a.58.58 0 0 1 .6.62l-.27 4.18a.86.84 74.2 0 1-.34.62q-3.44 2.52-6.68-.27a1.22 1.2-69.6 0 1-.41-.91c.02-2.54-.74-7.31 1.23-9.01 1.85-1.6 6.82-.83 6.26 2.47q-.09.54-.61.72-2.11.73-2.36-1.19a.76.76 0 0 0-1.51.1v6.19a.8.79 54.4 0 0 1.55.26ZM97.37 85.73c4.49-.71 11.29 2.12 6.09 7.49q-.43.44-.07.94l1.67 2.39a.81.8 76.9 0 1-.78 1.26q-2.18-.34-2.48-2.81a.79.79 0 0 0-.6-.68L99.8 94a.73.73 0 0 0-.88.85l.39 2.1q.12.61-.5.68l-1.29.13q-.63.06-.63-.57l-.15-10.72a.75.74-4.9 0 1 .63-.74Zm1.76 2.78.14 2.82a.71.71 0 0 0 .74.68l.12-.01a2.97 2.01-2.8 0 0 2.87-2.15l-.01-.22a2.97 2.01-2.8 0 0-3.06-1.87l-.12.01a.71.71 0 0 0-.68.74ZM168.33 88.66q3.05-1.78 5.27.57.4.43.4 1.01V97a.74.74 0 0 1-.48.69q-.84.32-1.26-.21-.26-.32-.17-1.02.3-2.22.12-4.75a2.01 2 .9 0 0-1.8-1.85c-3.62-.35-2.76 4.8-2.33 7.18a.61.61 0 0 1-.6.71h-1.38q-.4 0-.4-.4V85.9q0-.4.4-.4h1.35a.61.61 0 0 1 .6.71l-.34 2.02q-.15.88.62.43ZM10.39 89.27c1.13 1.49 3.33 1.68 4.25 3.14 3.67 5.81-8.16 7.74-7.59 1.96q.05-.45.48-.57 1.91-.55 2.68 1.18.23.52.8.52h.4a.8.8 0 0 0 .43-1.48l-3.64-2.3q-.41-.26-.59-.72c-2.19-5.7 5.81-7.23 7.45-2.6q.18.52-.21.9-.69.68-1.71.45-.4-.09-.67-.41l-.85-1.04a.78.78 0 0 0-1.23.97ZM48.78 95.17a.76.76 0 0 0 1.33.1q.34-.53.1-1.08c-.59-1.4-3.65-1.57-4.52-3.92-1.8-4.83 7.24-6.63 7.77-1.38q.06.6-.52.75-2 .51-3.04-1.32a.67.67 0 0 0-1.17 0q-.57 1.01.4 1.49c1.59.78 3.82 1.66 4.32 3.47 1.63 5.87-9.15 6.08-7.85.92q.09-.36.46-.43 1.96-.35 2.72 1.4ZM35.67 91.76a.31.31 0 0 0 .62-.01l.76-5.1a.59.58-84.5 0 1 .6-.5l3.59.14q.68.03.7.71l.22 10.04q.01.46-.45.46h-1.78a.57.57 0 0 1-.57-.58l.19-7.11a.46.46 0 0 0-.91-.07l-.87 6.49a1.77 1.77 0 0 1-3.51.04l-1.04-6.78a.34.34 0 0 0-.68.05l.03 7.42a.54.53-90 0 1-.53.54h-1.87q-.57 0-.55-.57l.43-10.21q.02-.47.49-.47h3.55q.62 0 .72.61l.86 4.9ZM61.78 94.62l-.04-7.86q-.01-.51.5-.51h2.24a.54.54 0 0 1 .54.61q-.47 3.79-.15 7.5c.32 3.8-4.87 4.21-6.85 2.5-2.05-1.76-1.29-7.48-1.26-10.1q0-.46.46-.48l2.17-.11q.52-.02.54.5.17 4.08.2 8.08 0 1.02 1 .74a.91.9 81.9 0 0 .65-.87ZM21.71 89.7l-.6 7.43a.4.4 0 0 1-.4.37h-2.46a.4.4 0 0 1-.4-.47l1.82-10.45a.4.4 0 0 1 .4-.33h4.29a.4.4 0 0 1 .39.33l1.88 10.45a.4.4 0 0 1-.4.47h-2.41a.4.4 0 0 1-.39-.35l-.92-7.47a.4.4 0 0 0-.8.02ZM75.57 91.8l-.3-5.13a.4.4 0 0 1 .4-.42h2.43a.4.4 0 0 1 .4.4V97.1a.4.4 0 0 1-.4.4H75a.4.4 0 0 1-.37-.25l-2.4-6.06a.4.4 0 0 0-.77.18l.37 5.7a.4.4 0 0 1-.4.43h-2.08a.4.4 0 0 1-.4-.4V86.65a.4.4 0 0 1 .4-.4h2.97a.4.4 0 0 1 .37.26l2.1 5.46a.4.4 0 0 0 .78-.17Z"/><path fill="#fff" d="M99.13 88.51a.71.71 0 0 1 .68-.74l.12-.01a2.97 2.01-2.8 0 1 3.06 1.87l.01.22a2.97 2.01-2.8 0 1-2.87 2.15l-.12.01a.71.71 0 0 1-.74-.68l-.14-2.82Z"/><path d="M146.25 88.71v8.43q0 .96-.91.65l-1.45-.51q-.43-.14-.86.01c-7.23 2.68-9.46-8.31-1.81-9.53a1.08 1.06 60.5 0 1 .87.25q1.41 1.23 2.86.08a.8.8 0 0 1 1.3.62Zm-1.99 4.13a2.86 2.86 0 0 0-2.86-2.86 2.86 2.86 0 0 0-2.86 2.86 2.86 2.86 0 0 0 2.86 2.86 2.86 2.86 0 0 0 2.86-2.86ZM109.04 95.21q2.27 1.29 4.22-.48a.96.96 0 0 1 1.46 1.21q-1.13 1.83-3.39 1.96c-6.11.36-7.44-7.94-1.97-9.75 3.4-1.13 6.03 1.4 6.29 4.84q.04.45-.42.47l-5.8.17a.85.84 59 0 0-.39 1.58Zm-.5-3.49 4.44.04a.2.2 0 0 0 .21-.2v-.12a2.01 1.44.4 0 0-2-1.46h-.82a2.01 1.44.4 0 0-2.02 1.42v.12a.2.2 0 0 0 .19.2ZM121.52 94.04l-3.51-1.1q-.54-.17-.79-.67c-2.12-4.38 4.52-5.46 6.67-3.03a.9.9 0 0 1-1.18 1.34q-1.46-1.01-3.26-.62a.85.84 37.5 0 0 .22 1.67c8.94-.44 3.03 10.67-2.97 4.69a.73.72 53.8 0 1 .17-1.15l.76-.4q.5-.27.89.14 1.18 1.24 2.79 1.09a1.01 1.01 0 0 0 .21-1.96Z"/><path d="M134.57 95.01a.43.03 72.2 0 1 .15.38q.15.46-.24.79c-3.55 2.88-8.23 1.88-8.84-2.81-.85-6.43 9.58-7.88 9.55-.4q0 .49-.49.51l-6.07.15q-1.02.03-.49.91c1.95 3.2 4.28-.61 6.43.47Zm-6.34-3.26h4.46a.2.2 0 0 0 .2-.2v-.12a2.02 1.44-.1 0 0-2.02-1.44h-.82a2.02 1.44-.1 0 0-2.02 1.44v.12a.2.2 0 0 0 .2.2ZM154.15 88.31a.27.27 0 0 1 .16.33l-.36 1.3a.62.62 0 0 1-.8.42c-3.71-1.29-2.65 4.89-2.65 6.68a.72.71 0 0 1-.72.71H149q-.75 0-.75-.75v-8.53a.57.57 0 0 1 .81-.52l1.58.73q.35.16.66-.06 1.31-.92 2.85-.31ZM161.79 90.83a1.63 1.63 0 0 0-1.26-.81c-7.2-.68-1.56 9.57 1.52 4.63a1.1 1.1 0 0 1 1.81-.09q.21.28.14.75c-.65 4.42-11.44 2.69-8.71-4.17 1.5-3.76 5.89-4.32 8.48-1.28a1.01 1 61.1 0 1-.46 1.61q-.99.3-1.52-.64Z"/><path fill="#fff" d="M108.54 91.72a.2.2 0 0 1-.19-.2v-.12a2.01 1.44.4 0 1 2.02-1.42h.82a2.01 1.44.4 0 1 2 1.46v.12a.2.2 0 0 1-.21.2l-4.44-.04ZM128.23 91.75a.2.2 0 0 1-.2-.2v-.12a2.02 1.44-.1 0 1 2.02-1.44h.82a2.02 1.44-.1 0 1 2.02 1.44v.12a.2.2 0 0 1-.2.2h-4.46Z"/><circle cx="141.4" cy="92.84" r="2.86" fill="#fff"/></svg>