<svg width="56" height="56" xmlns="http://www.w3.org/2000/svg">
 <!-- Created with Method Draw - http://github.com/duopixel/Method-Draw/ -->
 <g>
  <title>background</title>
  <rect fill="#fff" id="canvas_background" height="58" width="58" y="-1" x="-1"/>
  <g display="none" overflow="visible" y="0" x="0" height="100%" width="100%" id="canvasGrid">
   <rect fill="url(#gridpattern)" stroke-width="0" y="0" x="0" height="100%" width="100%"/>
  </g>
 </g>
 <g>
  <title>Layer 1</title>
    <path d="M0 0h64v64H0z" fill="#e30613"/>
    <path d="M20.2 52.2C8.93 52.2 0 43.056 0 32c0-11.27 9.143-20.2 20.2-20.2h23.6C55.07 11.8 64 20.944 64 32c0 11.27-9.143 20.2-20.2 20.2zm23.176-7.23c7.23 0 13.183-5.953 13.183-13.183s-5.953-13.183-13.183-13.183H20.837c-7.23 0-13.183 5.953-13.183 13.183S13.608 44.97 20.837 44.97z" fill="#fff"/>
 </g>
</svg>