<?xml version="1.0" standalone="no"?>
<!DOCTYPE svg PUBLIC "-//W3C//DTD SVG 20010904//EN"
 "http://www.w3.org/TR/2001/REC-SVG-20010904/DTD/svg10.dtd">
<svg version="1.0" xmlns="http://www.w3.org/2000/svg" width="110px" height="90px" viewBox="52 -6 126 190"
 preserveAspectRatio="xMidYMid meet">

<g transform="translate(0.000000,200.000000) scale(0.100000,-0.100000)"
fill="#000000" stroke="none">
<path d="M129 1177 c-38 -19 -72 -46 -86 -66 -24 -35 -31 -81 -13 -81 6 0 3
-11 -6 -25 -14 -22 -15 -32 -5 -65 11 -38 63 -100 83 -100 5 0 -2 20 -16 44
-14 25 -26 51 -26 59 0 8 18 19 42 26 23 7 75 28 115 47 58 27 81 33 108 28
30 -5 34 -3 37 18 3 22 4 22 41 -15 37 -39 37 -39 37 -12 0 57 -50 125 -92
125 -18 0 -28 5 -28 15 0 46 -105 47 -191 2z m139 1 c16 -16 16 -39 0 -35 -7
1 -13 -4 -14 -10 -1 -7 -2 -17 -3 -22 -1 -11 -118 -67 -158 -76 -29 -6 -34 -4
-43 21 -13 34 1 47 105 99 76 38 95 41 113 23z"/>
<path d="M553 1018 c-30 -81 -30 -83 -10 -86 11 -2 24 3 29 12 12 21 68 22 68
1 0 -9 9 -15 25 -15 14 0 25 3 25 8 0 4 -13 41 -28 82 -24 64 -31 75 -53 78
-24 3 -28 -3 -56 -80z m67 -9 c0 -10 -7 -19 -15 -19 -16 0 -19 9 -9 34 8 20
24 11 24 -15z"/>
<path d="M710 1094 c0 -3 11 -21 25 -42 l25 -36 -26 -43 -25 -43 25 0 c16 0
30 8 37 22 l12 22 15 -22 c8 -12 25 -22 38 -22 30 0 30 3 -1 47 -13 20 -21 41
-18 47 3 6 15 23 25 38 23 33 23 38 -3 38 -11 0 -29 -10 -39 -22 l-17 -22 -12
22 c-10 19 -61 33 -61 16z"/>
<path d="M880 1015 c0 -78 2 -85 20 -85 18 0 20 7 20 85 0 78 -2 85 -20 85
-18 0 -20 -7 -20 -85z"/>
<path d="M957 1082 c-32 -35 -13 -69 47 -89 17 -5 32 -15 34 -21 6 -20 -27
-26 -47 -8 -20 18 -51 22 -51 6 0 -5 9 -19 20 -30 39 -39 130 -15 130 34 0 28
-13 39 -62 55 -21 7 -38 19 -38 27 0 16 36 19 45 4 10 -15 45 -12 45 5 0 35
-95 49 -123 17z"/>
<path d="M1137 1080 c-46 -37 -44 -115 4 -141 52 -27 139 -4 139 38 0 18 -6
17 -34 -12 -28 -28 -62 -32 -93 -10 -38 26 -37 92 1 117 22 15 76 8 97 -13 22
-22 33 -21 24 3 -15 39 -98 49 -138 18z"/>
<path d="M1332 1015 c-23 -47 -37 -85 -32 -85 6 0 16 11 22 25 10 22 18 25 60
25 42 0 50 -3 60 -25 10 -22 35 -38 26 -17 -35 85 -74 162 -83 162 -6 0 -30
-38 -53 -85z m81 -17 c-7 -12 -63 -9 -63 2 0 6 7 25 16 42 l17 32 17 -35 c10
-19 16 -37 13 -41z"/>
<path d="M1490 1015 l0 -85 63 0 c73 0 102 16 112 61 16 71 -30 109 -132 109
l-43 0 0 -85z m133 53 c27 -21 32 -70 9 -98 -15 -19 -29 -24 -68 -24 l-49 -1
-3 68 -3 67 49 0 c26 0 56 -6 65 -12z"/>
<path d="M1690 1015 l0 -85 65 0 c37 0 65 4 65 10 0 6 -27 10 -61 10 -60 0
-60 0 -57 28 3 25 7 27 58 31 l55 5 -55 5 c-51 6 -55 8 -55 31 0 23 4 25 58
28 78 4 72 22 -8 22 l-65 0 0 -85z"/>
<path d="M1866 1084 c-19 -19 -21 -48 -3 -62 6 -5 31 -13 54 -17 52 -8 70 -27
48 -49 -23 -23 -72 -21 -87 4 -7 11 -19 20 -27 20 -24 0 13 -43 45 -52 62 -17
128 33 92 68 -8 8 -37 20 -64 27 -38 9 -49 16 -49 32 0 16 8 21 43 23 31 2 44
-1 48 -12 7 -17 24 -22 24 -7 0 38 -93 56 -124 25z"/>
<path d="M374 972 c-6 -4 -13 -15 -17 -24 -7 -21 -129 -84 -181 -93 -40 -8
-58 -31 -35 -46 25 -15 47 -10 82 21 40 35 132 80 165 80 29 0 52 22 52 49 0
16 -6 21 -27 21 -16 0 -33 -4 -39 -8z"/>
</g>
</svg>
